<mxfile host="app.diagrams.net" agent="Mozilla/5.0 (Windows NT 10.0; Win64; x64) AppleWebKit/537.36 (KHTML, like Gecko) Chrome/130.0.0.0 Safari/537.36" version="24.8.4">
  <diagram name="Page-1" id="9iZ3SXlNNRDpOcdkEF7I">
    <mxGraphModel dx="2107" dy="3969" grid="1" gridSize="10" guides="1" tooltips="1" connect="1" arrows="1" fold="1" page="1" pageScale="1" pageWidth="850" pageHeight="1100" math="0" shadow="0">
      <root>
        <mxCell id="0" />
        <mxCell id="1" parent="0" />
        <mxCell id="r4TtCCO1qMHGQnfLf3UD-1" value="&lt;p style=&quot;margin:0px;margin-top:4px;text-align:center;&quot;&gt;&lt;b&gt;LineSegment&lt;/b&gt;&lt;/p&gt;&lt;hr size=&quot;1&quot; style=&quot;border-style:solid;&quot;&gt;&lt;p style=&quot;margin:0px;margin-left:4px;&quot;&gt;&lt;/p&gt;&lt;p style=&quot;margin:0px;margin-left:4px;&quot;&gt;+ draw(java.awt.Graphics c&lt;span style=&quot;background-color: initial;&quot;&gt;anvas): void&lt;/span&gt;&lt;/p&gt;" style="verticalAlign=top;align=left;overflow=fill;html=1;whiteSpace=wrap;rounded=1;fillColor=#dae8fc;strokeColor=default;gradientColor=none;" parent="1" vertex="1">
          <mxGeometry x="720" y="-1830" width="220" height="50" as="geometry" />
        </mxCell>
        <mxCell id="r4TtCCO1qMHGQnfLf3UD-3" value="&lt;p style=&quot;margin:0px;margin-top:4px;text-align:center;&quot;&gt;&lt;i&gt;&amp;lt;&amp;lt;Interface&lt;/i&gt;&lt;i&gt;&amp;gt;&amp;gt;&lt;/i&gt;&lt;/p&gt;&lt;p style=&quot;margin:0px;margin-top:4px;text-align:center;&quot;&gt;&lt;b&gt;DrwaingEngine&lt;/b&gt;&lt;i&gt;&lt;/i&gt;&lt;/p&gt;&lt;hr size=&quot;1&quot; style=&quot;border-style:solid;&quot;&gt;&lt;p style=&quot;margin:0px;margin-left:4px;&quot;&gt;+ addShape(Shape shape): void&lt;br&gt;+ removeShape(Shape shape): void&lt;/p&gt;&lt;p style=&quot;margin:0px;margin-left:4px;&quot;&gt;+ getShapes():&amp;nbsp;&lt;span style=&quot;background-color: initial;&quot;&gt;ArrayList&amp;lt;Shape&amp;gt;&lt;/span&gt;&lt;/p&gt;&lt;p style=&quot;margin:0px;margin-left:4px;&quot;&gt;+ refresh(&lt;span style=&quot;background-color: initial;&quot;&gt;): void&lt;/span&gt;&lt;/p&gt;" style="verticalAlign=top;align=left;overflow=fill;html=1;whiteSpace=wrap;rounded=1;glass=0;shadow=0;fillColor=#d5e8d4;strokeColor=#82b366;fillStyle=auto;" parent="1" vertex="1">
          <mxGeometry x="325" y="-2320" width="230" height="110" as="geometry" />
        </mxCell>
        <mxCell id="r4TtCCO1qMHGQnfLf3UD-7" value="&lt;p style=&quot;margin:0px;margin-top:4px;text-align:center;&quot;&gt;&lt;b&gt;Rectangle&lt;/b&gt;&lt;/p&gt;&lt;hr size=&quot;1&quot; style=&quot;border-style:solid;&quot;&gt;&lt;p style=&quot;margin:0px;margin-left:4px;&quot;&gt;+ draw(java.awt.Graphics c&lt;span style=&quot;background-color: initial;&quot;&gt;anvas): void&lt;/span&gt;&lt;/p&gt;&lt;p style=&quot;margin:0px;margin-left:4px;&quot;&gt;&lt;br&gt;&lt;/p&gt;" style="verticalAlign=top;align=left;overflow=fill;html=1;whiteSpace=wrap;rounded=1;fillColor=#dae8fc;strokeColor=default;gradientColor=none;" parent="1" vertex="1">
          <mxGeometry x="720" y="-1760" width="220" height="50" as="geometry" />
        </mxCell>
        <mxCell id="r4TtCCO1qMHGQnfLf3UD-8" value="&lt;p style=&quot;margin:0px;margin-top:4px;text-align:center;&quot;&gt;&lt;b&gt;Square&lt;/b&gt;&lt;/p&gt;&lt;hr size=&quot;1&quot; style=&quot;border-style:solid;&quot;&gt;&lt;p style=&quot;margin:0px;margin-left:4px;&quot;&gt;&lt;/p&gt;&lt;p style=&quot;margin:0px;margin-left:4px;&quot;&gt;+ draw(java.awt.Graphics c&lt;span style=&quot;background-color: initial;&quot;&gt;anvas): void&lt;/span&gt;&lt;/p&gt;" style="verticalAlign=top;align=left;overflow=fill;html=1;whiteSpace=wrap;rounded=1;fillColor=#dae8fc;strokeColor=default;gradientColor=none;" parent="1" vertex="1">
          <mxGeometry x="-50" y="-1760" width="220" height="50" as="geometry" />
        </mxCell>
        <mxCell id="r4TtCCO1qMHGQnfLf3UD-9" value="&lt;p style=&quot;margin:0px;margin-top:4px;text-align:center;&quot;&gt;&lt;b&gt;Circle&lt;/b&gt;&lt;/p&gt;&lt;hr size=&quot;1&quot; style=&quot;border-style:solid;&quot;&gt;&lt;p style=&quot;margin:0px;margin-left:4px;&quot;&gt;+ draw(java.awt.Graphics c&lt;span style=&quot;background-color: initial;&quot;&gt;anvas): void&lt;/span&gt;&lt;/p&gt;" style="verticalAlign=top;align=left;overflow=fill;html=1;whiteSpace=wrap;rounded=1;fillColor=#dae8fc;strokeColor=default;gradientColor=none;" parent="1" vertex="1">
          <mxGeometry x="-50" y="-1830" width="220" height="50" as="geometry" />
        </mxCell>
        <mxCell id="r4TtCCO1qMHGQnfLf3UD-10" value="&lt;p style=&quot;margin:0px;margin-top:4px;text-align:center;&quot;&gt;&lt;i&gt;&amp;lt;&amp;lt;&lt;/i&gt;&lt;i&gt;&lt;b&gt;Shape&lt;/b&gt;&lt;/i&gt;&lt;i&gt;&amp;gt;&amp;gt;&lt;/i&gt;&lt;br&gt;&lt;/p&gt;&lt;hr size=&quot;1&quot; style=&quot;border-style:solid;&quot;&gt;&lt;p style=&quot;margin: 0px 0px 0px 4px;&quot;&gt;# position: Point&lt;br&gt;# properties: Map&amp;lt;String, Double&amp;gt;&lt;/p&gt;&lt;p style=&quot;margin: 0px 0px 0px 4px;&quot;&gt;# outlineColor: Color&lt;/p&gt;&lt;p style=&quot;margin: 0px 0px 0px 4px;&quot;&gt;# fillColor: Color&lt;/p&gt;" style="verticalAlign=top;align=left;overflow=fill;html=1;whiteSpace=wrap;rounded=1;fillColor=#f5f5f5;strokeColor=#666666;fontColor=#333333;" parent="1" vertex="1">
          <mxGeometry x="330" y="-1820" width="220" height="100" as="geometry" />
        </mxCell>
        <mxCell id="r4TtCCO1qMHGQnfLf3UD-20" value="Extends" style="endArrow=block;endSize=16;endFill=0;html=1;rounded=0;exitX=1;exitY=0.5;exitDx=0;exitDy=0;entryX=0;entryY=0.5;entryDx=0;entryDy=0;fillColor=#f5f5f5;strokeColor=#666666;curved=0;strokeWidth=3;" parent="1" source="r4TtCCO1qMHGQnfLf3UD-9" target="r4TtCCO1qMHGQnfLf3UD-10" edge="1">
          <mxGeometry width="160" relative="1" as="geometry">
            <mxPoint x="140" y="-1551" as="sourcePoint" />
            <mxPoint x="300" y="-1551" as="targetPoint" />
          </mxGeometry>
        </mxCell>
        <mxCell id="r4TtCCO1qMHGQnfLf3UD-21" value="Extends" style="endArrow=block;endSize=16;endFill=0;html=1;rounded=0;exitX=0;exitY=0.5;exitDx=0;exitDy=0;entryX=1;entryY=0.5;entryDx=0;entryDy=0;fillColor=#f5f5f5;strokeColor=#666666;curved=0;strokeWidth=3;" parent="1" source="r4TtCCO1qMHGQnfLf3UD-1" target="r4TtCCO1qMHGQnfLf3UD-10" edge="1">
          <mxGeometry width="160" relative="1" as="geometry">
            <mxPoint x="600" y="-1540" as="sourcePoint" />
            <mxPoint x="760" y="-1540" as="targetPoint" />
          </mxGeometry>
        </mxCell>
        <mxCell id="r4TtCCO1qMHGQnfLf3UD-22" value="Extends" style="endArrow=block;endSize=16;endFill=0;html=1;rounded=0;exitX=0;exitY=0.5;exitDx=0;exitDy=0;entryX=1;entryY=0.75;entryDx=0;entryDy=0;fillColor=#f5f5f5;strokeColor=#666666;curved=0;strokeWidth=3;" parent="1" source="r4TtCCO1qMHGQnfLf3UD-7" target="r4TtCCO1qMHGQnfLf3UD-10" edge="1">
          <mxGeometry width="160" relative="1" as="geometry">
            <mxPoint x="470" y="-1530" as="sourcePoint" />
            <mxPoint x="630" y="-1530" as="targetPoint" />
          </mxGeometry>
        </mxCell>
        <mxCell id="r4TtCCO1qMHGQnfLf3UD-23" value="Extends" style="endArrow=block;endSize=16;endFill=0;html=1;rounded=0;exitX=1;exitY=0.5;exitDx=0;exitDy=0;entryX=0;entryY=0.75;entryDx=0;entryDy=0;fillColor=#f5f5f5;strokeColor=#666666;curved=0;strokeWidth=3;" parent="1" source="r4TtCCO1qMHGQnfLf3UD-8" target="r4TtCCO1qMHGQnfLf3UD-10" edge="1">
          <mxGeometry width="160" relative="1" as="geometry">
            <mxPoint x="310" y="-1540" as="sourcePoint" />
            <mxPoint x="470" y="-1540" as="targetPoint" />
          </mxGeometry>
        </mxCell>
        <mxCell id="r4TtCCO1qMHGQnfLf3UD-29" value="" style="endArrow=diamondThin;endFill=1;endSize=24;html=1;rounded=0;exitX=0.5;exitY=0;exitDx=0;exitDy=0;fillColor=#dae8fc;strokeColor=#6c8ebf;strokeWidth=3;" parent="1" source="r4TtCCO1qMHGQnfLf3UD-10" edge="1">
          <mxGeometry width="160" relative="1" as="geometry">
            <mxPoint x="250" y="-1960" as="sourcePoint" />
            <mxPoint x="440" y="-1990" as="targetPoint" />
          </mxGeometry>
        </mxCell>
        <mxCell id="r4TtCCO1qMHGQnfLf3UD-34" value="&lt;p style=&quot;margin:0px;margin-top:4px;text-align:center;&quot;&gt;&lt;b&gt;CircleWindow&lt;/b&gt;&lt;/p&gt;&lt;hr size=&quot;1&quot; style=&quot;border-style:solid;&quot;&gt;&lt;p style=&quot;margin:0px;margin-left:4px;&quot;&gt;- position: Point&lt;/p&gt;&lt;div&gt;&lt;span style=&quot;background-color: initial;&quot;&gt;&amp;nbsp;- properties: Map&amp;lt;String, Double&amp;gt;&lt;/span&gt;&lt;/div&gt;&lt;hr size=&quot;1&quot; style=&quot;border-style:solid;&quot;&gt;&lt;p style=&quot;margin:0px;margin-left:4px;&quot;&gt;+ xPositionTextFieldFocusGained(&lt;span style=&quot;background-color: initial;&quot;&gt;FocusEvent&lt;/span&gt;&lt;span style=&quot;background-color: initial;&quot;&gt;): void&lt;/span&gt;&lt;/p&gt;&lt;p style=&quot;margin:0px;margin-left:4px;&quot;&gt;+ xPositionTextFieldFocusLost(&lt;span style=&quot;background-color: initial;&quot;&gt;FocusEvent&lt;/span&gt;&lt;span style=&quot;background-color: initial;&quot;&gt;): void&lt;/span&gt;&lt;span style=&quot;background-color: initial;&quot;&gt;&lt;/span&gt;&lt;/p&gt;&lt;p style=&quot;margin:0px;margin-left:4px;&quot;&gt;+ yPositionTextFieldFocusGained(&lt;span style=&quot;background-color: initial;&quot;&gt;FocusEvent&lt;/span&gt;&lt;span style=&quot;background-color: initial;&quot;&gt;): void&lt;/span&gt;&lt;span style=&quot;background-color: initial;&quot;&gt;&lt;/span&gt;&lt;/p&gt;&lt;p style=&quot;margin:0px;margin-left:4px;&quot;&gt;+ yPositionTextFieldFocusLost(&lt;span style=&quot;background-color: initial;&quot;&gt;FocusEvent&lt;/span&gt;&lt;span style=&quot;background-color: initial;&quot;&gt;): void&lt;/span&gt;&lt;span style=&quot;background-color: initial;&quot;&gt;&lt;/span&gt;&lt;/p&gt;&lt;p style=&quot;margin:0px;margin-left:4px;&quot;&gt;+ radiusPositionTextFieldFocusGained(&lt;span style=&quot;background-color: initial;&quot;&gt;FocusEvent&lt;/span&gt;&lt;span style=&quot;background-color: initial;&quot;&gt;): void&lt;/span&gt;&lt;span style=&quot;background-color: initial;&quot;&gt;&lt;/span&gt;&lt;/p&gt;&lt;p style=&quot;margin:0px;margin-left:4px;&quot;&gt;+ radiusPositionTextFieldFocusLost(&lt;span style=&quot;background-color: initial;&quot;&gt;FocusEvent&lt;/span&gt;&lt;span style=&quot;background-color: initial;&quot;&gt;): void&lt;/span&gt;&lt;span style=&quot;background-color: initial;&quot;&gt;&lt;/span&gt;&lt;/p&gt;&lt;p style=&quot;margin:0px;margin-left:4px;&quot;&gt;+ doneButtonActionPerformed(ActionEvent): void&lt;span style=&quot;background-color: initial;&quot;&gt;&lt;/span&gt;&lt;/p&gt;" style="verticalAlign=top;align=left;overflow=fill;html=1;whiteSpace=wrap;rounded=1;fillColor=#dae8fc;strokeColor=default;" parent="1" vertex="1">
          <mxGeometry x="-160" y="-2310" width="320" height="190" as="geometry" />
        </mxCell>
        <mxCell id="r4TtCCO1qMHGQnfLf3UD-35" value="&lt;p style=&quot;margin:0px;margin-top:4px;text-align:center;&quot;&gt;&lt;b&gt;SquareWindow&lt;/b&gt;&lt;/p&gt;&lt;hr size=&quot;1&quot; style=&quot;border-style:solid;&quot;&gt;&lt;p style=&quot;margin: 0px 0px 0px 4px;&quot;&gt;- position: Point&lt;/p&gt;&lt;div&gt;&lt;span style=&quot;background-color: initial;&quot;&gt;&amp;nbsp;- properties: Map&amp;lt;String, Double&amp;gt;&lt;/span&gt;&lt;/div&gt;&lt;hr style=&quot;border-style: solid;&quot; size=&quot;1&quot;&gt;&lt;p style=&quot;margin: 0px 0px 0px 4px;&quot;&gt;+ xPositionTextFieldFocusGained(&lt;span style=&quot;background-color: initial;&quot;&gt;FocusEvent&lt;/span&gt;&lt;span style=&quot;background-color: initial;&quot;&gt;): void&lt;/span&gt;&lt;/p&gt;&lt;p style=&quot;margin: 0px 0px 0px 4px;&quot;&gt;+ xPositionTextFieldFocusLost(&lt;span style=&quot;background-color: initial;&quot;&gt;FocusEvent&lt;/span&gt;&lt;span style=&quot;background-color: initial;&quot;&gt;): void&lt;/span&gt;&lt;span style=&quot;background-color: initial;&quot;&gt;&lt;/span&gt;&lt;/p&gt;&lt;p style=&quot;margin: 0px 0px 0px 4px;&quot;&gt;+ yPositionTextFieldFocusGained(&lt;span style=&quot;background-color: initial;&quot;&gt;FocusEvent&lt;/span&gt;&lt;span style=&quot;background-color: initial;&quot;&gt;): void&lt;/span&gt;&lt;span style=&quot;background-color: initial;&quot;&gt;&lt;/span&gt;&lt;/p&gt;&lt;p style=&quot;margin: 0px 0px 0px 4px;&quot;&gt;+ yPositionTextFieldFocusLost(&lt;span style=&quot;background-color: initial;&quot;&gt;FocusEvent&lt;/span&gt;&lt;span style=&quot;background-color: initial;&quot;&gt;): void&lt;/span&gt;&lt;span style=&quot;background-color: initial;&quot;&gt;&lt;/span&gt;&lt;/p&gt;&lt;p style=&quot;margin: 0px 0px 0px 4px;&quot;&gt;+ sidePositionTextFieldFocusGained(&lt;span style=&quot;background-color: initial;&quot;&gt;FocusEvent&lt;/span&gt;&lt;span style=&quot;background-color: initial;&quot;&gt;): void&lt;/span&gt;&lt;span style=&quot;background-color: initial;&quot;&gt;&lt;/span&gt;&lt;/p&gt;&lt;p style=&quot;margin: 0px 0px 0px 4px;&quot;&gt;+ sidePositionTextFieldFocusLost(&lt;span style=&quot;background-color: initial;&quot;&gt;FocusEvent&lt;/span&gt;&lt;span style=&quot;background-color: initial;&quot;&gt;): void&lt;/span&gt;&lt;/p&gt;&lt;p style=&quot;margin: 0px 0px 0px 4px;&quot;&gt;&lt;span style=&quot;background-color: initial;&quot;&gt;+ doneButtonActionPerformed(ActionEvent): void&lt;/span&gt;&lt;/p&gt;" style="verticalAlign=top;align=left;overflow=fill;html=1;whiteSpace=wrap;rounded=1;fillColor=#dae8fc;strokeColor=default;" parent="1" vertex="1">
          <mxGeometry x="-160" y="-2090" width="310" height="190" as="geometry" />
        </mxCell>
        <mxCell id="r4TtCCO1qMHGQnfLf3UD-37" value="&lt;p style=&quot;margin:0px;margin-top:4px;text-align:center;&quot;&gt;&lt;b&gt;RectangleWindow&lt;/b&gt;&lt;/p&gt;&lt;hr size=&quot;1&quot; style=&quot;border-style:solid;&quot;&gt;&lt;p style=&quot;margin: 0px 0px 0px 4px;&quot;&gt;- position: Point&lt;/p&gt;&lt;div&gt;&lt;span style=&quot;background-color: initial;&quot;&gt;&amp;nbsp;- properties: Map&amp;lt;String, Double&amp;gt;&lt;/span&gt;&lt;/div&gt;&lt;hr size=&quot;1&quot; style=&quot;border-style:solid;&quot;&gt;&lt;hr style=&quot;border-style: solid;&quot; size=&quot;1&quot;&gt;&lt;p style=&quot;margin: 0px 0px 0px 4px;&quot;&gt;+ xPositionTextFieldFocusGained(&lt;span style=&quot;background-color: initial;&quot;&gt;FocusEvent&lt;/span&gt;&lt;span style=&quot;background-color: initial;&quot;&gt;): void&lt;/span&gt;&lt;/p&gt;&lt;p style=&quot;margin: 0px 0px 0px 4px;&quot;&gt;+ xPositionTextFieldFocusLost(&lt;span style=&quot;background-color: initial;&quot;&gt;FocusEvent&lt;/span&gt;&lt;span style=&quot;background-color: initial;&quot;&gt;): void&lt;/span&gt;&lt;span style=&quot;background-color: initial;&quot;&gt;&lt;/span&gt;&lt;/p&gt;&lt;p style=&quot;margin: 0px 0px 0px 4px;&quot;&gt;+ yPositionTextFieldFocusGained(&lt;span style=&quot;background-color: initial;&quot;&gt;FocusEvent&lt;/span&gt;&lt;span style=&quot;background-color: initial;&quot;&gt;): void&lt;/span&gt;&lt;span style=&quot;background-color: initial;&quot;&gt;&lt;/span&gt;&lt;/p&gt;&lt;p style=&quot;margin: 0px 0px 0px 4px;&quot;&gt;+ yPositionTextFieldFocusLost(&lt;span style=&quot;background-color: initial;&quot;&gt;FocusEvent&lt;/span&gt;&lt;span style=&quot;background-color: initial;&quot;&gt;): void&lt;/span&gt;&lt;span style=&quot;background-color: initial;&quot;&gt;&lt;/span&gt;&lt;/p&gt;&lt;p style=&quot;margin: 0px 0px 0px 4px;&quot;&gt;+ lengthPositionTextFieldFocusGained(&lt;span style=&quot;background-color: initial;&quot;&gt;FocusEvent&lt;/span&gt;&lt;span style=&quot;background-color: initial;&quot;&gt;): void&lt;/span&gt;&lt;span style=&quot;background-color: initial;&quot;&gt;&lt;/span&gt;&lt;/p&gt;&lt;p style=&quot;margin: 0px 0px 0px 4px;&quot;&gt;+ lengthPositionTextFieldFocusLost(&lt;span style=&quot;background-color: initial;&quot;&gt;FocusEvent&lt;/span&gt;&lt;span style=&quot;background-color: initial;&quot;&gt;): void&lt;/span&gt;&lt;/p&gt;&lt;p style=&quot;margin: 0px 0px 0px 4px;&quot;&gt;+ widthPositionTextFieldFocusGained(&lt;span style=&quot;background-color: initial;&quot;&gt;FocusEvent&lt;/span&gt;&lt;span style=&quot;background-color: initial;&quot;&gt;): void&lt;/span&gt;&lt;span style=&quot;background-color: initial;&quot;&gt;&lt;/span&gt;&lt;/p&gt;&lt;p style=&quot;margin: 0px 0px 0px 4px;&quot;&gt;+ widthPositionTextFieldFocusLost(&lt;span style=&quot;background-color: initial;&quot;&gt;FocusEvent&lt;/span&gt;&lt;span style=&quot;background-color: initial;&quot;&gt;): void&lt;/span&gt;&lt;/p&gt;&lt;p style=&quot;margin: 0px 0px 0px 4px;&quot;&gt;+ doneButtonActionPerformed(ActionEvent): void&lt;/p&gt;" style="verticalAlign=top;align=left;overflow=fill;html=1;whiteSpace=wrap;rounded=1;fillColor=#dae8fc;strokeColor=default;" parent="1" vertex="1">
          <mxGeometry x="660" y="-2330" width="320" height="230" as="geometry" />
        </mxCell>
        <mxCell id="r4TtCCO1qMHGQnfLf3UD-38" value="&lt;p style=&quot;margin:0px;margin-top:4px;text-align:center;&quot;&gt;&lt;b&gt;LineSegmentWindow&lt;/b&gt;&lt;/p&gt;&lt;hr size=&quot;1&quot; style=&quot;border-style:solid;&quot;&gt;&lt;p style=&quot;margin: 0px 0px 0px 4px;&quot;&gt;- position: Point&lt;/p&gt;&lt;div&gt;&lt;span style=&quot;background-color: initial;&quot;&gt;&amp;nbsp;- properties: Map&amp;lt;String, Double&amp;gt;&lt;/span&gt;&lt;/div&gt;&lt;hr style=&quot;border-style: solid;&quot; size=&quot;1&quot;&gt;&lt;p style=&quot;margin: 0px 0px 0px 4px;&quot;&gt;+ xPositionTextFieldFocusGained(&lt;span style=&quot;background-color: initial;&quot;&gt;FocusEvent&lt;/span&gt;&lt;span style=&quot;background-color: initial;&quot;&gt;): void&lt;/span&gt;&lt;/p&gt;&lt;p style=&quot;margin: 0px 0px 0px 4px;&quot;&gt;+ xPositionTextFieldFocusLost(&lt;span style=&quot;background-color: initial;&quot;&gt;FocusEvent&lt;/span&gt;&lt;span style=&quot;background-color: initial;&quot;&gt;): void&lt;/span&gt;&lt;span style=&quot;background-color: initial;&quot;&gt;&lt;/span&gt;&lt;/p&gt;&lt;p style=&quot;margin: 0px 0px 0px 4px;&quot;&gt;+ yPositionTextFieldFocusGained(&lt;span style=&quot;background-color: initial;&quot;&gt;FocusEvent&lt;/span&gt;&lt;span style=&quot;background-color: initial;&quot;&gt;): void&lt;/span&gt;&lt;span style=&quot;background-color: initial;&quot;&gt;&lt;/span&gt;&lt;/p&gt;&lt;p style=&quot;margin: 0px 0px 0px 4px;&quot;&gt;+ yPositionTextFieldFocusLost(&lt;span style=&quot;background-color: initial;&quot;&gt;FocusEvent&lt;/span&gt;&lt;span style=&quot;background-color: initial;&quot;&gt;): void&lt;/span&gt;&lt;span style=&quot;background-color: initial;&quot;&gt;&lt;/span&gt;&lt;/p&gt;&lt;p style=&quot;margin: 0px 0px 0px 4px;&quot;&gt;+ lengthPositionTextFieldFocusGained(&lt;span style=&quot;background-color: initial;&quot;&gt;FocusEvent&lt;/span&gt;&lt;span style=&quot;background-color: initial;&quot;&gt;): void&lt;/span&gt;&lt;span style=&quot;background-color: initial;&quot;&gt;&lt;/span&gt;&lt;/p&gt;&lt;p style=&quot;margin: 0px 0px 0px 4px;&quot;&gt;+ lengthPositionTextFieldFocusLost(&lt;span style=&quot;background-color: initial;&quot;&gt;FocusEvent&lt;/span&gt;&lt;span style=&quot;background-color: initial;&quot;&gt;): void&lt;/span&gt;&lt;/p&gt;&lt;p style=&quot;margin: 0px 0px 0px 4px;&quot;&gt;+ anglePositionTextFieldFocusGained(&lt;span style=&quot;background-color: initial;&quot;&gt;FocusEvent&lt;/span&gt;&lt;span style=&quot;background-color: initial;&quot;&gt;): void&lt;/span&gt;&lt;span style=&quot;background-color: initial;&quot;&gt;&lt;/span&gt;&lt;/p&gt;&lt;p style=&quot;margin: 0px 0px 0px 4px;&quot;&gt;+ anglePositionTextFieldFocusLost(&lt;span style=&quot;background-color: initial;&quot;&gt;FocusEvent&lt;/span&gt;&lt;span style=&quot;background-color: initial;&quot;&gt;): void&lt;/span&gt;&lt;/p&gt;&lt;p style=&quot;margin: 0px 0px 0px 4px;&quot;&gt;+ doneButtonActionPerformed(ActionEvent): void&lt;span style=&quot;background-color: initial;&quot;&gt;&lt;/span&gt;&lt;/p&gt;" style="verticalAlign=top;align=left;overflow=fill;html=1;whiteSpace=wrap;rounded=1;fillColor=#dae8fc;strokeColor=default;" parent="1" vertex="1">
          <mxGeometry x="660" y="-2090" width="320" height="220" as="geometry" />
        </mxCell>
        <mxCell id="r4TtCCO1qMHGQnfLf3UD-39" value="&lt;p style=&quot;margin:0px;margin-top:4px;text-align:center;&quot;&gt;&lt;b&gt;PaintWindow&lt;/b&gt;&lt;/p&gt;&lt;hr size=&quot;1&quot; style=&quot;border-style:solid;&quot;&gt;&lt;p style=&quot;margin:0px;margin-left:4px;&quot;&gt;- shapes: ArrayList&amp;lt;Shape&amp;gt;&lt;/p&gt;&lt;hr size=&quot;1&quot; style=&quot;border-style:solid;&quot;&gt;&lt;p style=&quot;margin:0px;margin-left:4px;&quot;&gt;+ colorChooser(String): Color&lt;/p&gt;&lt;p style=&quot;margin:0px;margin-left:4px;&quot;&gt;+ removeButtonActionPerformed(ActionEvent): void&lt;/p&gt;&lt;p style=&quot;margin:0px;margin-left:4px;&quot;&gt;+ colorize&lt;span style=&quot;background-color: initial;&quot;&gt;Button&lt;/span&gt;&lt;span style=&quot;background-color: initial;&quot;&gt;ActionPerformed(ActionEvent): void&lt;/span&gt;&lt;/p&gt;&lt;p style=&quot;margin:0px;margin-left:4px;&quot;&gt;+ lineSegment&lt;span style=&quot;background-color: initial;&quot;&gt;Button&lt;/span&gt;&lt;span style=&quot;background-color: initial;&quot;&gt;ActionPerformed(ActionEvent): void&lt;/span&gt;&lt;/p&gt;&lt;p style=&quot;margin:0px;margin-left:4px;&quot;&gt;+ square&lt;span style=&quot;background-color: initial;&quot;&gt;Button&lt;/span&gt;&lt;span style=&quot;background-color: initial;&quot;&gt;ActionPerformed(ActionEvent): void&lt;/span&gt;&lt;/p&gt;&lt;p style=&quot;margin:0px;margin-left:4px;&quot;&gt;+ rectangle&lt;span style=&quot;background-color: initial;&quot;&gt;Button&lt;/span&gt;&lt;span style=&quot;background-color: initial;&quot;&gt;ActionPerformed(ActionEvent): void&lt;/span&gt;&lt;/p&gt;&lt;p style=&quot;margin:0px;margin-left:4px;&quot;&gt;+ circle&lt;span style=&quot;background-color: initial;&quot;&gt;Button&lt;/span&gt;&lt;span style=&quot;background-color: initial;&quot;&gt;ActionPerformed(ActionEvent): void&lt;/span&gt;&lt;/p&gt;" style="verticalAlign=top;align=left;overflow=fill;html=1;whiteSpace=wrap;rounded=1;fillColor=#dae8fc;strokeColor=#6c8ebf;" parent="1" vertex="1">
          <mxGeometry x="280" y="-2160" width="320" height="170" as="geometry" />
        </mxCell>
        <mxCell id="r4TtCCO1qMHGQnfLf3UD-40" value="" style="endArrow=block;dashed=1;endFill=0;endSize=12;html=1;rounded=0;entryX=0.5;entryY=1;entryDx=0;entryDy=0;fillColor=#d5e8d4;strokeColor=#82b366;strokeWidth=3;" parent="1" source="r4TtCCO1qMHGQnfLf3UD-39" target="r4TtCCO1qMHGQnfLf3UD-3" edge="1">
          <mxGeometry width="160" relative="1" as="geometry">
            <mxPoint x="440" y="-2310" as="sourcePoint" />
            <mxPoint x="440" y="-2220" as="targetPoint" />
          </mxGeometry>
        </mxCell>
        <mxCell id="r4TtCCO1qMHGQnfLf3UD-45" value="" style="endArrow=none;html=1;edgeStyle=orthogonalEdgeStyle;rounded=0;exitX=1;exitY=0.25;exitDx=0;exitDy=0;fillColor=#dae8fc;strokeColor=#6c8ebf;strokeWidth=3;" parent="1" source="r4TtCCO1qMHGQnfLf3UD-39" edge="1">
          <mxGeometry relative="1" as="geometry">
            <mxPoint x="500" y="-2220" as="sourcePoint" />
            <mxPoint x="660" y="-2220" as="targetPoint" />
            <Array as="points">
              <mxPoint x="600" y="-2080" />
              <mxPoint x="640" y="-2080" />
              <mxPoint x="640" y="-2220" />
            </Array>
          </mxGeometry>
        </mxCell>
        <mxCell id="r4TtCCO1qMHGQnfLf3UD-46" value="1" style="edgeLabel;resizable=0;html=1;align=left;verticalAlign=bottom;" parent="r4TtCCO1qMHGQnfLf3UD-45" connectable="0" vertex="1">
          <mxGeometry x="-1" relative="1" as="geometry">
            <mxPoint x="10" y="28" as="offset" />
          </mxGeometry>
        </mxCell>
        <mxCell id="r4TtCCO1qMHGQnfLf3UD-47" value="*" style="edgeLabel;resizable=0;html=1;align=right;verticalAlign=bottom;" parent="r4TtCCO1qMHGQnfLf3UD-45" connectable="0" vertex="1">
          <mxGeometry x="1" relative="1" as="geometry">
            <mxPoint x="-10" as="offset" />
          </mxGeometry>
        </mxCell>
        <mxCell id="r4TtCCO1qMHGQnfLf3UD-48" value="" style="endArrow=none;html=1;edgeStyle=orthogonalEdgeStyle;rounded=0;entryX=0;entryY=0.5;entryDx=0;entryDy=0;fillColor=#dae8fc;strokeColor=#6c8ebf;strokeWidth=3;" parent="1" target="r4TtCCO1qMHGQnfLf3UD-38" edge="1">
          <mxGeometry relative="1" as="geometry">
            <mxPoint x="600" y="-2040" as="sourcePoint" />
            <mxPoint x="760" y="-2040" as="targetPoint" />
          </mxGeometry>
        </mxCell>
        <mxCell id="r4TtCCO1qMHGQnfLf3UD-49" value="1" style="edgeLabel;resizable=0;html=1;align=left;verticalAlign=bottom;" parent="r4TtCCO1qMHGQnfLf3UD-48" connectable="0" vertex="1">
          <mxGeometry x="-1" relative="1" as="geometry">
            <mxPoint x="10" as="offset" />
          </mxGeometry>
        </mxCell>
        <mxCell id="r4TtCCO1qMHGQnfLf3UD-50" value="*" style="edgeLabel;resizable=0;html=1;align=right;verticalAlign=bottom;" parent="r4TtCCO1qMHGQnfLf3UD-48" connectable="0" vertex="1">
          <mxGeometry x="1" relative="1" as="geometry">
            <mxPoint x="-10" as="offset" />
          </mxGeometry>
        </mxCell>
        <mxCell id="r4TtCCO1qMHGQnfLf3UD-51" value="" style="endArrow=none;html=1;edgeStyle=orthogonalEdgeStyle;rounded=0;entryX=1;entryY=0.5;entryDx=0;entryDy=0;fillColor=#dae8fc;strokeColor=#6c8ebf;strokeWidth=3;" parent="1" target="r4TtCCO1qMHGQnfLf3UD-34" edge="1">
          <mxGeometry relative="1" as="geometry">
            <mxPoint x="280" y="-2080" as="sourcePoint" />
            <mxPoint x="440" y="-2080" as="targetPoint" />
          </mxGeometry>
        </mxCell>
        <mxCell id="r4TtCCO1qMHGQnfLf3UD-52" value="1" style="edgeLabel;resizable=0;html=1;align=left;verticalAlign=bottom;" parent="r4TtCCO1qMHGQnfLf3UD-51" connectable="0" vertex="1">
          <mxGeometry x="-1" relative="1" as="geometry">
            <mxPoint x="-20" as="offset" />
          </mxGeometry>
        </mxCell>
        <mxCell id="r4TtCCO1qMHGQnfLf3UD-53" value="*" style="edgeLabel;resizable=0;html=1;align=right;verticalAlign=bottom;" parent="r4TtCCO1qMHGQnfLf3UD-51" connectable="0" vertex="1">
          <mxGeometry x="1" relative="1" as="geometry">
            <mxPoint x="10" as="offset" />
          </mxGeometry>
        </mxCell>
        <mxCell id="r4TtCCO1qMHGQnfLf3UD-59" value="" style="endArrow=none;html=1;edgeStyle=orthogonalEdgeStyle;rounded=0;entryX=0.996;entryY=0.625;entryDx=0;entryDy=0;entryPerimeter=0;fillColor=#dae8fc;strokeColor=#6c8ebf;strokeWidth=3;" parent="1" target="r4TtCCO1qMHGQnfLf3UD-35" edge="1">
          <mxGeometry relative="1" as="geometry">
            <mxPoint x="280" y="-2050" as="sourcePoint" />
            <mxPoint x="440" y="-2050" as="targetPoint" />
          </mxGeometry>
        </mxCell>
        <mxCell id="r4TtCCO1qMHGQnfLf3UD-60" value="1" style="edgeLabel;resizable=0;html=1;align=left;verticalAlign=bottom;" parent="r4TtCCO1qMHGQnfLf3UD-59" connectable="0" vertex="1">
          <mxGeometry x="-1" relative="1" as="geometry">
            <mxPoint x="-20" as="offset" />
          </mxGeometry>
        </mxCell>
        <mxCell id="r4TtCCO1qMHGQnfLf3UD-61" value="*" style="edgeLabel;resizable=0;html=1;align=right;verticalAlign=bottom;" parent="r4TtCCO1qMHGQnfLf3UD-59" connectable="0" vertex="1">
          <mxGeometry x="1" relative="1" as="geometry">
            <mxPoint x="12" as="offset" />
          </mxGeometry>
        </mxCell>
        <mxCell id="YQp9yZE1nYrJ_WseYYlz-4" value="&lt;p style=&quot;margin:0px;margin-top:4px;text-align:center;&quot;&gt;&lt;i&gt;&amp;lt;&amp;lt;Interface&lt;/i&gt;&lt;i&gt;&amp;gt;&amp;gt;&lt;/i&gt;&lt;/p&gt;&lt;p style=&quot;margin:0px;margin-top:4px;text-align:center;&quot;&gt;&lt;b&gt;CustomShape&lt;/b&gt;&lt;i&gt;&lt;/i&gt;&lt;/p&gt;&lt;hr size=&quot;1&quot; style=&quot;border-style:solid;&quot;&gt;&lt;p style=&quot;color: rgb(51, 51, 51); margin: 0px 0px 0px 4px;&quot;&gt;+ getPosition(): Point&lt;/p&gt;&lt;p style=&quot;color: rgb(51, 51, 51); margin: 0px 0px 0px 4px;&quot;&gt;+ setPosition(&lt;span style=&quot;background-color: initial;&quot;&gt;Point&lt;/span&gt;&lt;span style=&quot;background-color: initial;&quot;&gt;): void&lt;/span&gt;&lt;/p&gt;&lt;p style=&quot;color: rgb(51, 51, 51); margin: 0px 0px 0px 4px;&quot;&gt;+ getProperties(): Map&amp;lt;String, Double&amp;gt;&lt;/p&gt;&lt;p style=&quot;color: rgb(51, 51, 51); margin: 0px 0px 0px 4px;&quot;&gt;+ setProperties(Map&amp;lt;String, Double&amp;gt; properties): void&lt;/p&gt;&lt;p style=&quot;color: rgb(51, 51, 51); margin: 0px 0px 0px 4px;&quot;&gt;+ getColor(): Color&lt;/p&gt;&lt;p style=&quot;color: rgb(51, 51, 51); margin: 0px 0px 0px 4px;&quot;&gt;+ setColor(Color color): void&lt;/p&gt;&lt;p style=&quot;color: rgb(51, 51, 51); margin: 0px 0px 0px 4px;&quot;&gt;+ getFillColor(): Color&lt;/p&gt;&lt;p style=&quot;color: rgb(51, 51, 51); margin: 0px 0px 0px 4px;&quot;&gt;+ setFillColor(Color color): void&lt;/p&gt;&lt;p style=&quot;color: rgb(51, 51, 51); margin: 0px 0px 0px 4px;&quot;&gt;+ draw(java.awt.Graphics c&lt;span style=&quot;background-color: initial;&quot;&gt;anvas): void&lt;/span&gt;&lt;/p&gt;" style="verticalAlign=top;align=left;overflow=fill;html=1;whiteSpace=wrap;rounded=1;glass=0;shadow=0;fillColor=#d5e8d4;strokeColor=#82b366;fillStyle=auto;" vertex="1" parent="1">
          <mxGeometry x="292.5" y="-1650" width="297.5" height="190" as="geometry" />
        </mxCell>
        <mxCell id="YQp9yZE1nYrJ_WseYYlz-6" value="" style="endArrow=block;dashed=1;endFill=0;endSize=12;html=1;rounded=0;fillColor=#d5e8d4;strokeColor=#82b366;curved=0;strokeWidth=3;exitX=0.5;exitY=1;exitDx=0;exitDy=0;entryX=0.5;entryY=0;entryDx=0;entryDy=0;" edge="1" parent="1" source="r4TtCCO1qMHGQnfLf3UD-10" target="YQp9yZE1nYrJ_WseYYlz-4">
          <mxGeometry width="160" relative="1" as="geometry">
            <mxPoint x="165" y="-1800" as="sourcePoint" />
            <mxPoint x="165" y="-1710" as="targetPoint" />
            <Array as="points">
              <mxPoint x="441" y="-1680" />
            </Array>
          </mxGeometry>
        </mxCell>
      </root>
    </mxGraphModel>
  </diagram>
</mxfile>
